<?xml version="1.0" encoding="UTF-8"?>
<svg xmlns="http://www.w3.org/2000/svg" width="400" height="260" viewBox="0 0 400 260" role="img" aria-label="Live Metrics">
  <defs>
    <linearGradient id="bgGrad" x1="0" y1="0" x2="1" y2="1">
      <stop offset="0%" stop-color="#0b1220"/>
      <stop offset="100%" stop-color="#0a1628"/>
    </linearGradient>
    <linearGradient id="accentGrad" x1="0" y1="0" x2="1" y2="0">
      <stop offset="0%" stop-color="#2dd4bf"/>
      <stop offset="100%" stop-color="#38bdf8"/>
    </linearGradient>
    <pattern id="grid" width="24" height="24" patternUnits="userSpaceOnUse">
      <path d="M 24 0 L 0 0 0 24" fill="none" stroke="#162033" stroke-width="1"/>
    </pattern>
    <style>
      .title { font: 700 16px 'Segoe UI', Ubuntu, Sans-Serif; fill: #e5eefc; }
      .label { font: 500 12px 'Segoe UI', Ubuntu, Sans-Serif; fill: #8b9bb4; }
      .value { font: 700 22px 'Segoe UI', Ubuntu, Sans-Serif; fill: #e5eefc; }
      .small { font: 500 11px 'Segoe UI', Ubuntu, Sans-Serif; fill: #8b9bb4; }
      .accent { fill: #2dd4bf; }
      .pulse { animation: pulse 2.4s ease-in-out infinite; }
      @keyframes pulse { 0%,100% { opacity: .55 } 50% { opacity: 1 } }
      .barGrow { animation: grow .9s ease-out both; }
      @keyframes grow { from { transform: scaleX(0) } to { transform: scaleX(1) } }
    </style>
  </defs>
  <rect width="400" height="260" rx="14" fill="url(#bgGrad)" stroke="#1f2a3d" stroke-width="1"/>
  <rect width="400" height="260" rx="14" fill="url(#grid)" opacity=".35"/>
  <rect x="0" y="0" width="6" height="260" rx="3" fill="url(#accentGrad)"/>
  <circle cx="382" cy="18" r="4" class="pulse" fill="#2dd4bf"/>
  <text x="22" y="28" class="title">Live Metrics</text>
  
      <g transform="translate(22,48)">
        <rect width="118" height="72" rx="10" fill="#111827" stroke="#1f2a3d"/>
        <text x="14" y="24" class="label">Repos</text>
        <text x="14" y="52" class="value" fill="#2dd4bf">25</text>
      </g>
      <g transform="translate(152,48)">
        <rect width="118" height="72" rx="10" fill="#111827" stroke="#1f2a3d"/>
        <text x="14" y="24" class="label">Stars</text>
        <text x="14" y="52" class="value" fill="#fbbf24">2</text>
      </g>
      <g transform="translate(282,48)">
        <rect width="118" height="72" rx="10" fill="#111827" stroke="#1f2a3d"/>
        <text x="14" y="24" class="label">Commits</text>
        <text x="14" y="52" class="value" fill="#38bdf8">107</text>
      </g>
      <g transform="translate(22,132)">
        <rect width="118" height="72" rx="10" fill="#111827" stroke="#1f2a3d"/>
        <text x="14" y="24" class="label">Contribs</text>
        <text x="14" y="52" class="value" fill="#2dd4bf">222</text>
      </g>
      <g transform="translate(152,132)">
        <rect width="118" height="72" rx="10" fill="#111827" stroke="#1f2a3d"/>
        <text x="14" y="24" class="label">PRs</text>
        <text x="14" y="52" class="value" fill="#38bdf8">6</text>
      </g>
      <g transform="translate(282,132)">
        <rect width="118" height="72" rx="10" fill="#111827" stroke="#1f2a3d"/>
        <text x="14" y="24" class="label">Followers</text>
        <text x="14" y="52" class="value" fill="#fbbf24">0</text>
      </g>
    <text x="22" y="228" class="small">vanchungnguyxn · 2+ yrs on GitHub · updated 2026-09-06</text>
    <text x="22" y="246" class="small">forks 0 · merged PRs 9 · reviews 0</text>
  
</svg>